# xmcd CD database file
#
# Track frame offsets:
#	150
#	34050
#	65615
#	90822
#	120660
#	153892
#	191477
#	224685
#	267582
#
# Disc length: 3855 seconds
#
# Revision: 1
# Processed by: cddbd v1.5PL3 Copyright (c) Steve Scherf et al.
# Submitted via: CDex 1.51
#
DISCID=7a0f0d09
DTITLE=村松健 - 水の中のピアノ
DYEAR=1995
DGENRE=Acoustic
TTITLE0=瞳の中の夕なぎ
TTITLE1=Early Tea Morning -めざめの水-
TTITLE2=森へ行こうよ
TTITLE3=水の中のピアノ -Piano Splash!-
TTITLE4=森の精と水神様
TTITLE5=RU･PESHU･PE -峠みちのふもと町-
TTITLE6=僕らは明日に向かって流れる
TTITLE7=自由の河 -Waltz In The Stream-
TTITLE8=輝く水、そらへ
EXTD=YEAR: 1995
EXTT0=
EXTT1=
EXTT2=
EXTT3=
EXTT4=
EXTT5=
EXTT6=
EXTT7=
EXTT8=
PLAYORDER=
